# Blender v2.79 (sub 0) OBJ File: ''
# www.blender.org
mtllib Crystal1.mtl
o Green_Crystal_Cylinder.013
v 0.214756 -0.049675 -0.171161
v 0.296127 0.445635 -0.280738
v 0.432027 0.507259 -0.189357
v 0.330770 -0.054087 -0.090714
v 0.408211 0.530265 -0.076515
v 0.309336 -0.031081 0.010843
v 0.209860 0.489708 0.002424
v 0.171887 -0.003664 0.031955
v 0.126586 0.562093 -0.142443
v 0.055874 0.000747 -0.048492
v 0.077308 -0.022258 -0.150050
v 0.171826 -0.167006 -0.045529
v 0.150402 0.539088 -0.255284
v 0.322299 0.815350 -0.214048
v -0.133425 -0.037490 -0.393140
v -0.270094 0.592416 -0.589170
v -0.034639 0.637670 -0.578527
v 0.054939 -0.001287 -0.384626
v 0.065248 0.705593 -0.371141
v 0.134849 0.053051 -0.218717
v -0.070319 0.728262 -0.174398
v 0.026395 0.071187 -0.061323
v -0.305773 0.683009 -0.185041
v -0.161968 0.034984 -0.069837
v -0.241878 -0.019355 -0.235746
v -0.020174 -0.167006 -0.183074
v -0.405661 0.615085 -0.392427
v -0.220217 0.936121 -0.448021
v 0.038781 -0.058175 0.086888
v -0.117044 0.322534 0.351493
v -0.251354 0.302168 0.293682
v -0.046694 -0.066720 0.049446
v -0.275046 0.399459 0.098183
v -0.066881 0.005618 -0.076404
v -0.083636 0.482067 0.082150
v 0.052219 0.057019 -0.086380
v 0.130711 0.009843 0.034586
v 0.061667 -0.132742 -0.063515
v 0.033761 0.425216 0.269800
v -0.215714 0.585917 0.327745
vt 0.431081 0.664938
vt 0.332433 0.432856
vt 0.398487 0.425314
vt 0.358610 0.704069
vt 0.282682 0.438251
vt 0.206619 0.675976
vt 0.216125 0.442839
vt 0.149691 0.440270
vt 0.724750 0.742506
vt 0.741403 0.677902
vt 0.815894 0.715403
vt 0.099963 0.434669
vt 0.000266 0.664793
vt 0.033907 0.425314
vt 0.072535 0.704298
vt 0.848314 0.337912
vt 0.800710 0.270701
vt 0.923800 0.177527
vt 0.775755 0.221292
vt 0.734910 0.145935
vt 0.808487 0.074885
vt 0.852107 0.040806
vt 0.923800 0.000266
vt 0.890385 0.677902
vt 0.906119 0.742498
vt 0.880038 0.785206
vt 0.815099 0.800496
vt 0.750324 0.785519
vt 0.367056 0.405499
vt 0.213937 0.121389
vt 0.293740 0.080660
vt 0.114526 0.424781
vt 0.136307 0.125744
vt 0.050349 0.091841
vt 0.734378 0.405500
vt 0.581259 0.121389
vt 0.661062 0.080660
vt 0.503630 0.125744
vt 0.417672 0.091841
vt 0.536484 0.000266
vt 0.481848 0.424781
vt 0.292870 0.808523
vt 0.203052 0.877038
vt 0.146568 0.709861
vt 0.090085 0.877038
vt 0.000266 0.808523
vt 0.431613 0.746417
vt 0.521432 0.677902
vt 0.577916 0.845079
vt 0.634399 0.677902
vt 0.724218 0.746417
vt 0.169162 0.000266
vt 0.697257 0.675923
vt 0.641684 0.448346
vt 0.685728 0.445985
vt 0.627780 0.677370
vt 0.572823 0.444242
vt 0.431613 0.633942
vt 0.514584 0.425314
vt 0.885468 0.871058
vt 0.833699 0.899752
vt 0.812110 0.822981
vt 0.744695 0.440842
vt 0.814401 0.425314
vt 0.790763 0.665440
vt 0.604034 0.848177
vt 0.685981 0.894416
vt 0.569743 0.976535
vt 0.707873 0.999734
vt 0.431613 0.999734
vt 0.448433 0.902763
vt 0.534590 0.845611
vt 0.789591 0.899710
vt 0.731929 0.861845
vt 0.724750 0.801029
vt 0.899470 0.801029
vt 0.303465 0.708879
vt 0.127660 0.709329
vt 0.240231 0.424781
vt 0.000266 0.411002
vt 0.607553 0.424781
vt 0.367588 0.411001
vt 0.525213 0.664362
vt 0.894008 0.635248
vn 0.6050 -0.2460 -0.7573
vn 0.5568 -0.2612 -0.7885
vn 0.5426 -0.2654 -0.7970
vn 0.9637 -0.1337 0.2310
vn 0.9633 -0.1329 0.2330
vn 0.9633 -0.1327 0.2334
vn 0.2088 0.0557 0.9764
vn 0.3268 0.0776 0.9419
vn 0.1607 0.0466 0.9859
vn -0.7782 0.1825 0.6010
vn -0.6191 0.1141 0.7770
vn -0.5650 0.0926 0.8199
vn -0.2413 -0.6667 -0.7051
vn -0.1993 -0.1761 -0.9640
vn -0.2495 -0.1505 -0.9566
vn -0.1848 -0.1832 -0.9655
vn -0.9710 0.0845 -0.2238
vn -0.9712 0.0851 -0.2225
vn -0.9709 0.0844 -0.2240
vn -0.0554 0.1810 -0.9819
vn -0.7965 0.5371 -0.2776
vn -0.5393 0.5874 0.6035
vn 0.2382 0.4793 0.8447
vn 0.9312 0.3418 0.1268
vn 0.5174 0.1163 -0.8478
vn 0.3644 -0.7394 -0.5661
vn 0.6077 -0.7372 0.2953
vn 0.0532 -0.4280 0.9022
vn -0.5408 -0.3604 0.7601
vn -0.8214 -0.5686 -0.0446
vn 0.0964 -0.2766 -0.9561
vn 0.9016 -0.0049 -0.4326
vn 0.8159 0.2126 0.5377
vn -0.0749 0.1584 0.9845
vn -0.4961 -0.8327 -0.2459
vn -0.7944 -0.3309 -0.5093
vn -0.8801 -0.1133 0.4610
vn -0.7558 0.3396 -0.5599
vn -0.8254 0.5163 0.2284
vn -0.1712 0.7371 0.6537
vn 0.5525 0.7812 0.2907
vn 0.6221 0.6044 -0.4976
vn -0.0320 0.3837 -0.9229
vn 0.1786 -0.7916 -0.5843
vn 0.7884 -0.5858 -0.1879
vn 0.7235 -0.4211 0.5470
vn 0.0488 -0.4621 0.8855
vn -0.5610 -0.6680 0.4890
vn -0.2321 -0.6221 0.7477
vn -0.2557 -0.6211 0.7409
vn -0.2617 -0.6208 0.7390
vn -0.8975 -0.4285 -0.1041
vn -0.8973 -0.4292 -0.1033
vn -0.8972 -0.4295 -0.1030
vn -0.2083 0.3022 -0.9302
vn 0.6815 -0.6091 0.4057
vn 0.6126 -0.2682 0.7435
vn 0.6020 -0.2807 0.7476
vn 0.6168 -0.2632 0.7418
vn 0.8280 0.4107 -0.3817
vn 0.8237 0.4150 -0.3863
vn 0.8302 0.4086 -0.3793
vn 0.3492 0.2131 0.9125
vn 0.5279 0.8461 -0.0739
vn -0.3740 0.7648 -0.5245
vn -0.9801 0.1027 0.1699
vn -0.3867 -0.0619 0.9201
vn -0.0986 -0.8975 0.4299
vn -0.6919 -0.6683 -0.2731
vn -0.0308 -0.1211 -0.9922
vn 0.8342 -0.0249 -0.5510
vn 0.6147 -0.2428 -0.7505
vn 0.9638 -0.1339 0.2307
vn 0.3539 0.0827 0.9316
vn -0.8050 0.1952 0.5603
vn -0.2598 -0.1451 -0.9547
vn -0.9712 0.0851 -0.2223
vn -0.2280 -0.6223 0.7489
vn -0.8976 -0.4282 -0.1043
vn 0.5990 -0.2841 0.7486
vn 0.8221 0.4166 -0.3881
usemtl None
s 1
f 2/1/1 4/2/2 1/3/3
f 3/4/4 6/5/5 4/2/6
f 6/5/7 7/6/8 8/7/9
f 7/6/10 10/8/11 8/7/12
f 11/9/13 1/10/13 12/11/13
f 11/12/14 2/13/15 1/14/16
f 10/8/17 13/15/18 11/12/19
f 2/16/20 13/17/20 14/18/20
f 13/17/21 9/19/21 14/18/21
f 9/19/22 7/20/22 14/18/22
f 7/20/23 5/21/23 14/18/23
f 5/21/24 3/22/24 14/18/24
f 3/22/25 2/23/25 14/18/25
f 1/24/26 4/25/26 12/11/26
f 4/25/27 6/26/27 12/11/27
f 6/26/28 8/27/28 12/11/28
f 8/27/29 10/28/29 12/11/29
f 10/28/30 11/9/30 12/11/30
f 16/29/31 18/30/31 15/31/31
f 18/30/32 19/32/32 20/33/32
f 19/32/33 22/34/33 20/33/33
f 21/35/34 24/36/34 22/37/34
f 25/38/35 15/39/35 26/40/35
f 27/41/36 15/39/36 25/38/36
f 24/36/37 27/41/37 25/38/37
f 16/42/38 27/43/38 28/44/38
f 27/43/39 23/45/39 28/44/39
f 23/45/40 21/46/40 28/44/40
f 21/47/41 19/48/41 28/49/41
f 19/48/42 17/50/42 28/49/42
f 17/50/43 16/51/43 28/49/43
f 15/31/44 18/30/44 26/52/44
f 18/30/45 20/33/45 26/52/45
f 20/33/46 22/34/46 26/52/46
f 22/37/47 24/36/47 26/40/47
f 24/36/48 25/38/48 26/40/48
f 30/53/49 32/54/50 29/55/51
f 31/56/52 34/57/53 32/54/54
f 34/57/55 35/58/55 36/59/55
f 37/60/56 29/61/56 38/62/56
f 37/63/57 30/53/58 29/55/59
f 36/64/60 39/65/61 37/63/62
f 30/66/63 39/67/63 40/68/63
f 39/67/64 35/69/64 40/68/64
f 35/70/65 33/71/65 40/68/65
f 33/71/66 31/72/66 40/68/66
f 31/72/67 30/66/67 40/68/67
f 29/61/68 32/73/68 38/62/68
f 32/73/69 34/74/69 38/62/69
f 34/74/70 36/75/70 38/62/70
f 36/76/71 37/60/71 38/62/71
f 2/1/1 3/4/72 4/2/2
f 3/4/4 5/77/73 6/5/5
f 6/5/7 5/77/74 7/6/8
f 7/6/10 9/78/75 10/8/11
f 11/12/14 13/15/76 2/13/15
f 10/8/17 9/78/77 13/15/18
f 16/29/31 17/79/31 18/30/31
f 18/30/32 17/79/32 19/32/32
f 19/32/33 21/80/33 22/34/33
f 21/35/34 23/81/34 24/36/34
f 27/41/36 16/82/36 15/39/36
f 24/36/37 23/81/37 27/41/37
f 30/53/49 31/56/78 32/54/50
f 31/56/52 33/83/79 34/57/53
f 34/57/55 33/83/55 35/58/55
f 37/63/57 39/65/80 30/53/58
f 36/64/60 35/84/81 39/65/61
